<svg width="24" height="24" viewBox="0 0 24 24" fill="none" xmlns="http://www.w3.org/2000/svg">
<g id="feed.svg">
<path id="Vector" d="M5.03677 21.4735C3.65161 21.4735 2.52661 20.3461 2.52661 18.9633C2.52661 17.5805 3.65161 16.4531 5.03677 16.4531C6.42192 16.4531 7.54692 17.5805 7.54692 18.9633C7.54692 20.3461 6.41958 21.4735 5.03677 21.4735ZM4.92652 18.9633C4.92652 19.2 4.92652 19.5727 4.92652 18.9633C5.21034 18.9633 5.5359 18.9633 4.92652 18.9633ZM12.0422 18.9633H10.636C10.636 15.8742 8.12349 13.3641 5.03677 13.3641V11.9578C6.90708 11.9578 8.66724 12.6867 9.99146 14.0109C11.3133 15.3328 12.0422 17.093 12.0422 18.9633ZM16.7649 18.9633H15.3586C15 13.3641 10.636 9.00001 5.03677 8.64142V7.23517C6.6188 7.23517 8.1563 7.54454 9.60239 8.15626C10.9993 8.74689 12.2532 9.59298 13.329 10.6688C14.4047 11.7445 15.2508 13.0008 15.8415 14.3953C16.4532 15.8461 16.7649 17.3813 16.7649 18.9633Z" fill="white"/>
<path id="Vector_2" d="M21.4735 18.9633H20.0672C19.8001 10.8 13.2001 4.69087 5.03442 3.93048V2.52423C7.25396 2.52423 9.40552 2.95782 11.4329 3.81564C13.3899 4.64298 15.1477 5.82892 16.6571 7.33829C18.1665 8.84767 19.3524 10.6055 20.1797 12.5625C21.0399 14.5922 21.4735 16.7461 21.4735 18.9633Z" fill="white"/>
</g>
</svg>
