<svg width="195" height="41" viewBox="0 0 195 41" fill="none" xmlns="http://www.w3.org/2000/svg">
<rect y="19.4126" width="7.20142" height="29.8902" rx="3.60071" transform="rotate(-43.7618 0 19.4126)" fill="white"/>
<rect x="0.0690918" y="4.98096" width="7.20142" height="49.7103" rx="3.60071" transform="rotate(-43.7618 0.0690918 4.98096)" fill="white"/>
<circle cx="5.83031" cy="35.0161" r="4.40087" fill="white"/>
<circle cx="30.6352" cy="10.2111" r="9.20181" fill="white"/>
<path d="M50.8369 27.1555V13.3784H55.5425C57.153 13.3784 58.4774 13.6671 59.5203 14.2419C60.5609 14.8119 61.3347 15.6099 61.8392 16.6383C62.3485 17.6668 62.6056 18.8771 62.6056 20.267C62.6056 21.6592 62.3485 22.872 61.8392 23.9053C61.3347 24.9337 60.5609 25.7341 59.5203 26.3017C58.4774 26.8717 57.153 27.1555 55.5425 27.1555H50.8369ZM53.3498 24.9919H55.4163C56.5733 24.9919 57.4853 24.8051 58.1523 24.4292C58.8242 24.0556 59.3021 23.5172 59.5883 22.8186C59.8793 22.1152 60.0249 21.2639 60.0249 20.267C60.0249 19.2846 59.8793 18.4405 59.5883 17.7347C59.3021 17.024 58.8242 16.4783 58.1523 16.095C57.4853 15.7142 56.5733 15.5226 55.4163 15.5226H53.3498V24.9919Z" fill="white"/>
<path d="M67.7283 27.1555V13.3784H70.2411V27.1555H67.7283Z" fill="white"/>
<path d="M81.8354 27.6212C80.5401 27.6212 79.4098 27.3277 78.4396 26.7383C77.4694 26.1513 76.7126 25.3291 76.1693 24.2739C75.6308 23.214 75.364 21.9818 75.364 20.5774C75.364 19.1609 75.6405 17.9142 76.1984 16.8324C76.7611 15.753 77.5567 14.9089 78.5851 14.3001C79.6136 13.6865 80.836 13.3784 82.2525 13.3784C83.868 13.3784 85.2069 13.7665 86.2692 14.5427C87.3292 15.314 88.0181 16.3812 88.3358 17.7444H85.5222C85.3087 17.104 84.9255 16.6044 84.3773 16.2406C83.8267 15.8792 83.1185 15.6972 82.2525 15.6972C80.8748 15.6972 79.81 16.1338 79.0605 17.007C78.3159 17.8802 77.9448 19.0784 77.9448 20.5968C77.9448 22.1249 78.3135 23.3037 79.0508 24.1381C79.7931 24.9677 80.8021 25.38 82.0779 25.38C83.3198 25.38 84.256 25.0453 84.8915 24.371C85.5319 23.6918 85.9151 22.8041 86.0461 21.7029H82.5727V19.811H88.5881V27.3883H86.2692L86.0655 25.574C85.6241 26.2338 85.0686 26.7431 84.3967 27.0973C83.7297 27.4466 82.8759 27.6212 81.8354 27.6212Z" fill="white"/>
<path d="M93.7107 27.1555V13.3784H96.2236V27.1555H93.7107Z" fill="white"/>
<path d="M108.254 27.6212C106.877 27.6212 105.674 27.3204 104.645 26.7189C103.617 26.1174 102.807 25.283 102.22 24.2157C101.638 23.1436 101.346 21.9042 101.346 20.4998C101.346 19.0978 101.638 17.8608 102.22 16.7936C102.807 15.7263 103.617 14.892 104.645 14.2904C105.674 13.684 106.877 13.3784 108.254 13.3784C109.618 13.3784 110.818 13.684 111.854 14.2904C112.887 14.892 113.692 15.7263 114.27 16.7936C114.852 17.8608 115.143 19.0978 115.143 20.4998C115.143 21.9042 114.852 23.1436 114.27 24.2157C113.692 25.283 112.887 26.1174 111.854 26.7189C110.818 27.3204 109.618 27.6212 108.254 27.6212ZM108.254 25.3606C109.567 25.3606 110.612 24.9288 111.388 24.0605C112.169 23.1946 112.562 22.0085 112.562 20.4998C112.562 18.9935 112.169 17.8075 111.388 16.9391C110.612 16.0732 109.567 15.639 108.254 15.639C106.94 15.639 105.889 16.0732 105.101 16.9391C104.318 17.8075 103.927 18.9935 103.927 20.4998C103.927 22.0085 104.318 23.1946 105.101 24.0605C105.889 24.9288 106.94 25.3606 108.254 25.3606Z" fill="white"/>
<path d="M120.266 27.1555V13.3784H125.32C126.419 13.3784 127.329 13.5676 128.047 13.9411C128.765 14.3171 129.298 14.824 129.648 15.4644C130.002 16.0999 130.181 16.8009 130.181 17.5698C130.181 18.4114 129.961 19.1803 129.521 19.8789C129.08 20.5726 128.396 21.0771 127.465 21.3924L130.317 27.1555H127.426L124.864 21.7223H122.778V27.1555H120.266ZM122.778 19.8789H125.165C126.004 19.8789 126.621 19.6751 127.009 19.2676C127.402 18.8601 127.6 18.3217 127.6 17.6474C127.6 16.9949 127.406 16.471 127.018 16.0756C126.635 15.6827 126.012 15.4838 125.146 15.4838H122.778V19.8789Z" fill="white"/>
<path d="M135.44 27.1555L140.475 13.3784H143.308L148.344 27.1555H145.666L144.569 23.9635H139.194L138.069 27.1555H135.44ZM139.883 22.0036H143.881L141.872 16.2794L139.883 22.0036Z" fill="white"/>
<path d="M160.161 27.6212C158.769 27.6212 157.575 27.3253 156.581 26.7286C155.584 26.1343 154.815 25.3024 154.272 24.2351C153.733 23.163 153.466 21.9236 153.466 20.5192C153.466 19.1172 153.733 17.8778 154.272 16.8033C154.815 15.7312 155.584 14.892 156.581 14.2904C157.575 13.684 158.769 13.3784 160.161 13.3784C161.81 13.3784 163.161 13.7908 164.216 14.6106C165.276 15.4329 165.936 16.585 166.196 18.0646H163.421C163.251 17.3151 162.89 16.7257 162.334 16.2988C161.776 15.8719 161.039 15.6584 160.122 15.6584C158.846 15.6584 157.847 16.0926 157.124 16.9585C156.406 17.8269 156.047 19.0129 156.047 20.5192C156.047 22.0279 156.406 23.2116 157.124 24.0702C157.847 24.9313 158.846 25.3606 160.122 25.3606C161.039 25.3606 161.776 25.1617 162.334 24.7591C162.89 24.3588 163.251 23.8058 163.421 23.1H166.196C165.936 24.5165 165.276 25.6274 164.216 26.4278C163.161 27.2234 161.81 27.6212 160.161 27.6212Z" fill="white"/>
<path d="M171.318 27.1555V13.3784H173.831V25.186H179.934V27.1555H171.318Z" fill="white"/>
<path d="M185.057 27.1555V13.3784H194.051V15.4062H187.57V19.19H193.459V21.1499H187.57V25.1277H194.051V27.1555H185.057Z" fill="white"/>
</svg>
